<svg xmlns="http://www.w3.org/2000/svg" width="512" height="512" viewBox="0 0 512 512"><path d="M283.828 368.458c-40.972 19.061-79.079 18.858-104.67 17.01-30.526-2.203-55.079-10.562-65.871-17.865-6.65-4.502-15.692-2.762-20.195 3.892-4.502 6.651-2.76 15.692 3.891 20.194 17.349 11.743 48.034 20.478 80.081 22.791a247.81 247.81 0 0017.823.639c27.891 0 63.313-2.658 101.21-20.285 7.281-3.389 10.438-12.037 7.051-19.319-3.386-7.285-12.037-10.439-19.32-7.057zm161.647-21.55c1.393-126.344 14.381-365.103-227.486-345.806-238.8 19.222-175.482 271.484-179.041 355.975C35.794 401.771 20.959 456.401 0 512h64.55c6.633-23.561 11.512-46.86 13.616-69.075a157.139 157.139 0 0012.497 7.852c7.229 4.259 13.442 9.922 20.02 15.917 15.372 14.009 32.795 29.887 66.856 31.876 2.286.131 4.587.195 6.838.195 34.448 0 58.007-15.076 76.939-27.189 9.07-5.808 16.908-10.82 24.281-13.228 20.955-6.56 39.266-17.146 52.951-30.626a94.462 94.462 0 005.98-6.474c7.623 27.938 18.061 59.379 29.645 90.752H512c-33.088-51.112-67.219-101.188-66.525-165.092zm-383.42-68.732l-.001-.022c-2.373-41.23 17.355-75.916 44.063-77.467 26.706-1.553 50.28 30.614 52.652 71.846l.002.021c.128 2.224.184 4.425.185 6.604-8.462 2.128-16.096 5.218-22.936 8.813-.026-.306-.046-.606-.076-.913v-.015c-2.285-23.403-14.786-41.08-27.926-39.479-13.14 1.602-21.94 21.875-19.656 45.278l.002.014c.996 10.205 3.934 19.317 8.021 26.223-1.017.802-3.892 2.906-7.203 5.328-2.485 1.816-5.51 4.029-9.157 6.715-9.941-13.048-16.753-31.791-17.97-52.946zm270.576 101.913c-.951 21.793-29.455 42.296-55.792 50.522l-.147.048c-10.949 3.551-20.713 9.8-31.051 16.415-17.366 11.11-35.323 22.604-61.261 22.604-1.702 0-3.447-.052-5.163-.146-23.758-1.391-34.871-11.518-48.94-24.338-7.421-6.765-15.095-13.759-24.988-19.562l-.212-.122c-21.353-12.052-34.606-27.041-35.454-40.097-.421-6.49 2.469-12.109 8.591-16.7a2728.526 2728.526 0 0128.142-20.829c6.555-4.794 8.534-6.238 10-7.632a367.301 367.301 0 003.402-3.281c12.223-11.887 32.68-31.78 64.075-31.78 19.202 0 40.449 7.399 63.085 21.951 10.662 6.938 19.94 10.143 31.688 14.199 8.078 2.789 17.234 5.951 29.496 11.202l.199.082c11.439 4.7 24.947 13.279 24.33 27.464zm-6.309-51.187a101.567 101.567 0 00-6.871-3.144c-11.053-4.728-19.916-7.937-27.268-10.498 4.059-7.946 6.58-17.86 6.811-28.62v-.017c.562-26.188-12.645-47.448-29.497-47.488-16.855-.039-30.975 21.157-31.538 47.343v.014a72.635 72.635 0 00-.01 2.555c-10.381-4.774-20.59-8.243-30.583-10.38-.046-.982-.102-1.966-.122-2.96v-.024c-.969-47.706 28.301-87.195 65.377-88.201 37.074-1.007 67.914 36.85 68.887 84.555v.026c.437 21.574-5.33 41.434-15.186 56.839z"/></svg>